<svg width="224" height="225" viewBox="0 0 224 225" fill="none" xmlns="http://www.w3.org/2000/svg">
<path d="M358 47.6187C351.932 40.7048 281.839 -29.4817 266.565 -36.6051C254.429 -42.262 241.666 -28.6437 236.853 -22.5678C234.97 -20.2632 227.229 -7.06393 221.998 -11.8827C213.628 -19.8442 239.155 -41.6334 248.57 -44.5666C257.358 -47.4998 257.358 -52.3186 254.22 -55.0422C250.663 -57.7659 182.871 -129 179.732 -129C179.523 -129 179.314 -128.79 178.895 -128.581C178.686 -128.79 178.477 -129 178.268 -129C175.129 -129 107.337 -57.7659 103.989 -55.0422C100.642 -52.3186 103.153 -47.0808 108.593 -46.0332C115.916 -44.5666 146.046 -19.8442 136.212 -11.8827C131.19 -7.90198 126.587 -15.4444 123.658 -20.2632C120.519 -25.082 107.546 -42.681 91.6446 -36.6051C75.7428 -30.3198 6.0678 40.7048 0 47.6187V47.8282V48.0378C6.0678 54.9517 75.5336 126.395 91.4354 132.262C104.199 136.871 119.473 122.834 123.03 117.805C127.842 111.101 129.935 103.349 136.002 107.539C148.347 115.92 113.614 141.061 106.291 141.48C98.9678 141.899 100.642 147.975 103.989 150.699C107.337 153.422 175.129 224.656 178.268 224.656C178.477 224.656 178.686 224.447 179.105 224.237C179.523 224.447 179.732 224.656 179.942 224.656C183.08 224.656 250.872 153.422 254.22 150.699C257.568 147.975 259.241 143.156 251.918 141.48C244.176 139.595 211.327 116.339 222.207 107.539C228.902 101.882 234.761 115.71 236.644 118.015C241.247 123.462 255.057 137.29 266.774 132.262C282.257 125.557 352.141 54.9517 358.209 48.0378V47.8282C358 47.8282 358 47.8282 358 47.6187ZM190.194 -60.28C190.613 -80.6027 190.194 -95.8971 190.194 -95.8971C193.96 -103.02 206.724 -79.3456 208.397 -72.8507C210.071 -66.3559 205.887 -62.1656 213.419 -60.699C218.65 -59.861 224.927 -53.3661 223.253 -46.2427C221.579 -39.3288 208.816 -49.3854 203.376 -34.091C197.726 -18.7966 208.607 -8.32101 219.696 -4.34028C230.785 -0.359543 243.549 -2.66418 251.709 -8.32101C259.869 -13.9778 259.451 -27.1771 265.518 -26.5486C277.236 -25.7105 267.82 -7.48296 258.195 0.897522C249.407 8.64948 237.272 5.50679 234.97 9.48752C232.669 13.4682 237.899 23.7343 249.826 24.7819C260.706 25.8295 270.122 21.4297 270.54 12.0017C270.749 7.18289 272.842 3.8307 278.7 4.87827C284.14 5.71631 289.371 13.8873 290.836 19.1251C303.181 16.8204 313.852 23.5248 320.756 31.0673C327.661 38.6097 318.245 36.9336 318.245 36.9336H253.592C228.065 36.9336 223.462 12.0017 221.161 9.48752C218.859 6.97337 209.444 5.92581 198.982 -4.96881C187.056 -17.33 189.776 -40.1669 190.194 -60.28ZM37.4529 30.6482C44.3577 23.1058 55.0286 16.4014 67.3735 18.7061C68.8381 13.6778 74.069 5.29729 79.5091 4.45923C85.3676 3.62119 87.46 6.76385 87.6692 11.5826C88.0877 21.0107 97.5032 25.4104 108.383 24.3629C120.31 23.1058 125.541 13.0492 123.239 9.0685C120.937 5.08777 108.802 8.23045 100.014 0.4785C90.3892 -7.90199 80.9737 -25.92 92.6908 -26.9676C98.7586 -27.3866 98.3401 -14.1873 106.5 -8.74003C114.66 -3.0832 127.214 -0.77858 138.513 -4.7593C149.603 -8.74004 160.483 -19.2156 154.833 -34.51C149.184 -49.8044 136.421 -39.5383 134.956 -46.6617C133.282 -53.5756 139.559 -60.0705 144.79 -61.1181C152.113 -62.5846 148.138 -66.7749 149.812 -73.2698C151.486 -79.7646 164.249 -103.44 168.015 -96.3161C168.015 -96.3161 167.597 -81.0217 168.015 -60.699C168.434 -40.3764 171.363 -17.7491 159.646 -5.80686C148.975 5.08777 139.769 6.13533 137.258 8.64948C134.747 11.5826 130.144 36.5146 104.617 36.5146H40.173C40.173 36.5146 30.5482 37.9812 37.4529 30.6482ZM167.806 156.146C167.387 176.469 167.806 191.763 167.806 191.763C164.04 198.887 151.276 175.212 149.603 168.717C147.929 162.222 152.113 158.032 144.581 156.565C139.35 155.727 133.073 149.232 134.747 142.109C136.421 135.195 149.184 145.251 154.624 129.957C160.274 114.663 149.393 104.187 138.304 100.206C127.214 96.2256 114.451 98.5302 106.291 104.187C98.1309 109.844 98.5494 123.043 92.4816 122.415C80.7645 121.577 90.18 103.349 99.8048 94.9685C108.593 87.2165 120.728 90.3592 123.03 86.3785C125.331 82.3978 120.101 72.1317 108.174 71.0841C97.294 70.0365 87.8784 74.4363 87.46 83.8643C87.2507 88.6831 85.1584 92.0353 79.2998 90.9877C73.8597 90.1497 68.6289 81.9787 67.1642 76.7409C54.8194 79.0455 44.1484 72.3412 37.2437 64.7987C30.339 57.2563 39.7545 58.9324 39.7545 58.9324H104.617C130.144 58.9324 134.747 83.8643 137.049 86.3785C139.35 88.8926 148.766 89.9402 159.437 100.835C171.154 113.196 168.224 136.033 167.806 156.146ZM179.105 84.0738C159.227 84.0738 143.116 67.9414 143.116 48.0378C143.116 28.1341 159.227 12.0017 179.105 12.0017C198.982 12.0017 215.093 28.1341 215.093 48.0378C215.093 67.9414 198.982 84.0738 179.105 84.0738ZM320.547 65.2177C313.642 72.7602 302.971 79.4646 290.626 77.1599C289.162 82.1882 283.931 90.5687 278.491 91.4068C272.632 92.2448 270.54 89.1021 270.331 84.2834C269.912 74.8553 260.497 70.4556 249.617 71.5031C237.69 72.7602 232.459 82.8168 234.761 86.7975C237.063 90.7782 249.198 87.6355 257.986 95.3875C267.611 103.768 277.026 121.786 265.309 122.834C259.241 123.253 259.66 110.053 251.5 104.606C243.34 98.9492 230.785 96.6446 219.487 100.625C208.397 104.606 197.517 115.082 203.167 130.376C208.816 145.67 221.579 135.404 223.044 142.528C224.718 149.442 218.441 155.937 213.21 156.984C205.887 158.451 209.862 162.641 208.188 169.136C206.514 175.631 193.751 199.306 189.985 192.182C189.985 192.182 190.403 176.888 189.985 156.565C189.566 136.242 186.637 113.615 198.354 101.673C209.025 90.7782 218.231 89.7307 220.533 87.2165C222.835 84.7024 227.438 59.7704 252.964 59.7704H318.036C318.036 59.5609 327.452 57.8848 320.547 65.2177Z" fill="#74B5E8"/>
</svg>
