<svg width="98" height="20" viewBox="0 0 98 20" fill="none" xmlns="http://www.w3.org/2000/svg">
<g clip-path="url(#clip0)">
<path d="M7.8365 0.43689V0.53773C7.58697 0.554537 7.37071 0.58815 7.17109 0.621764C6.9881 0.672184 6.78848 0.773024 6.60549 0.957898C6.47241 1.09235 6.3726 1.17639 6.3227 1.22681C6.27279 1.27723 6.22288 1.32765 6.15634 1.37807L3.14537 4.40328L6.75521 8.52093C7.03801 8.84025 7.2709 9.04193 7.47053 9.10916C7.67015 9.19319 7.91968 9.24361 8.23575 9.29403V9.39488H6.3227L2.36351 4.85706V8.30244C2.36351 8.94109 2.67958 9.26042 3.31172 9.29403V9.39488H0.500366V9.29403C0.683354 9.27723 0.833071 9.26042 0.966153 9.19319C1.09923 9.14277 1.21568 9.04193 1.29886 8.89067C1.38203 8.73941 1.43194 8.55454 1.43194 8.30244V1.51252C1.43194 1.14277 1.33213 0.873865 1.14914 0.756217C0.982788 0.621764 0.749895 0.554537 0.500366 0.53773V0.43689H3.31172V0.53773C2.67958 0.554537 2.36351 0.873865 2.36351 1.51252V4.82345L5.7571 1.39487C5.7571 1.41168 5.77373 1.39487 5.77373 1.36126C5.95672 1.19319 6.05653 1.04193 6.05653 0.907478C6.05653 0.773024 6.00663 0.672184 5.89018 0.63857C5.77373 0.604957 5.60738 0.571343 5.39112 0.554537V0.43689H7.8365Z" fill="#2D2D2D"/>
<path d="M12.7772 0.335938L15.4222 7.9998C15.5553 8.40316 15.6883 8.68888 15.8214 8.85695C15.9379 9.04182 16.071 9.14266 16.1708 9.19308C16.2872 9.2435 16.4369 9.27711 16.6033 9.29392V9.39476H13.7254V9.29392C14.0248 9.29392 14.2577 9.26031 14.4074 9.20989C14.5738 9.15947 14.6403 8.9914 14.6403 8.7393C14.6403 8.60484 14.6071 8.41997 14.5239 8.18468C14.5072 8.15106 14.5072 8.13426 14.5072 8.11745L13.7254 5.7477H10.6645L9.96583 7.94938C9.86602 8.2351 9.81611 8.4872 9.81611 8.67207C9.81611 8.92417 9.88266 9.09224 9.9991 9.17627C10.1155 9.26031 10.2985 9.29392 10.5314 9.29392V9.39476H8.45203V9.29392C8.75146 9.26031 8.98435 9.15947 9.16734 8.95778C9.35033 8.7561 9.50005 8.45358 9.63313 8.05022L12.1284 0.335938H12.7772ZM10.7643 5.42837H13.5757L12.145 1.17627H12.1284L10.7643 5.42837Z" fill="#2D2D2D"/>
<path d="M23.0577 0.789831H18.8157C18.4664 0.789831 18.1836 0.823444 17.9507 0.907478C17.7344 0.991512 17.5514 1.12597 17.4183 1.31084C17.2853 1.49571 17.1854 1.74781 17.1355 2.08395H17.0357V0.43689H24.2887V0.604957L18.1669 9.04193H22.4089C22.8747 9.04193 23.2573 8.99151 23.5235 8.89067C23.7896 8.78983 23.9892 8.65538 24.0891 8.50412C24.2055 8.35286 24.3219 8.13437 24.455 7.88227H24.5548L24.139 9.37807H16.9359V9.19319L23.0577 0.789831Z" fill="#2D2D2D"/>
<path d="M29.1963 0.335938L31.8413 7.9998C31.9744 8.40316 32.1075 8.68888 32.2405 8.85695C32.357 9.04182 32.4901 9.14266 32.5899 9.19308C32.7063 9.2435 32.856 9.27711 33.0224 9.29392V9.39476H30.1279V9.29392C30.4273 9.29392 30.6602 9.26031 30.8099 9.20989C30.9763 9.15947 31.0428 8.9914 31.0428 8.7393C31.0428 8.60484 31.0095 8.41997 30.9264 8.18468C30.9097 8.15106 30.9097 8.13426 30.9097 8.11745L30.1279 5.7477H27.067L26.3683 7.94938C26.2685 8.2519 26.2186 8.4872 26.2186 8.67207C26.2186 8.92417 26.2851 9.09224 26.4016 9.17627C26.518 9.26031 26.701 9.29392 26.9339 9.29392V9.39476H24.8545V9.29392C25.1539 9.26031 25.3868 9.15947 25.5698 8.95778C25.7528 8.7561 25.9025 8.45358 26.0356 8.05022L28.5309 0.352744H29.1963V0.335938ZM27.1834 5.42837H29.9948L28.5641 1.17627H28.5475L27.1834 5.42837Z" fill="#2D2D2D"/>
<path d="M40.9408 0.43689V0.53773C40.6913 0.554537 40.475 0.58815 40.2754 0.621764C40.0924 0.672184 39.8928 0.773024 39.7098 0.957898C39.5767 1.09235 39.4769 1.17639 39.427 1.22681C39.3771 1.27723 39.3272 1.32765 39.2606 1.37807L36.2497 4.38647L39.8595 8.50412C40.1423 8.82345 40.3752 9.02513 40.5748 9.09235C40.7744 9.17639 41.024 9.22681 41.34 9.27723V9.37807H39.427L35.4678 4.85706V8.30244C35.4678 8.94109 35.7839 9.26042 36.416 9.29403V9.39488H33.6046V9.29403C33.7876 9.27723 33.9374 9.26042 34.0704 9.19319C34.2035 9.14277 34.32 9.04193 34.4031 8.89067C34.4863 8.73941 34.5362 8.55454 34.5362 8.30244V1.51252C34.5362 1.14277 34.4364 0.873865 34.2534 0.756217C34.0704 0.621764 33.8375 0.554537 33.588 0.554537V0.43689H36.3994V0.53773C35.7672 0.554537 35.4512 0.873865 35.4512 1.51252V4.82345L38.8447 1.39487C38.8447 1.41168 38.8447 1.39487 38.8614 1.36126C39.0444 1.19319 39.1442 1.04193 39.1442 0.907478C39.1442 0.773024 39.0943 0.672184 38.9778 0.63857C38.8614 0.604957 38.695 0.571343 38.4788 0.554537V0.43689H40.9408Z" fill="#2D2D2D"/>
<path d="M48.7426 4.53773V1.54613C48.7426 1.26042 48.6594 1.00832 48.5097 0.823444C48.3599 0.63857 48.1104 0.53773 47.7777 0.53773V0.43689H50.5891V0.53773C50.2564 0.53773 50.0235 0.63857 49.8738 0.806638C49.724 0.991512 49.6409 1.22681 49.6409 1.52933V8.28563C49.6409 8.94109 49.9569 9.27723 50.5891 9.27723V9.37807H47.7777V9.27723C48.0771 9.27723 48.31 9.19319 48.4764 9.02513C48.6427 8.85706 48.7259 8.62177 48.7259 8.30244V4.80664H43.6522V8.30244C43.6522 8.62177 43.7354 8.85706 43.9183 9.02513C44.1013 9.19319 44.3342 9.27723 44.617 9.27723V9.37807H41.8057V9.27723C42.1051 9.27723 42.338 9.19319 42.5043 9.02513C42.6707 8.85706 42.7539 8.60496 42.7539 8.30244V1.54613C42.7539 0.873865 42.4378 0.554537 41.8057 0.554537V0.43689H44.617V0.53773C44.2843 0.53773 44.0348 0.63857 43.8851 0.806638C43.7353 0.991512 43.6522 1.22681 43.6522 1.52933V4.53773H48.7426Z" fill="#2D2D2D"/>
<path d="M58.3745 0.43689V0.53773C58.1083 0.53773 57.892 0.604957 57.7091 0.756217C57.5261 0.907478 57.4263 1.15958 57.4263 1.49571V8.28563C57.4263 8.62177 57.5261 8.87387 57.7257 9.04193C57.9253 9.19319 58.1416 9.27723 58.3745 9.27723V9.37807H55.5631V9.27723C55.8126 9.27723 56.0455 9.19319 56.2285 9.04193C56.4115 8.89067 56.5113 8.63857 56.5113 8.28563V1.51252C56.5113 1.14277 56.4115 0.890671 56.2285 0.739411C56.0455 0.604957 55.8293 0.53773 55.5631 0.53773V0.43689H58.3745Z" fill="#2D2D2D"/>
<path d="M68.4384 0.43689V0.53773C68.2055 0.571343 68.0391 0.621764 67.906 0.672184C67.7729 0.722604 67.6731 0.840251 67.6066 1.02513C67.5401 1.19319 67.4902 1.44529 67.4902 1.76462V9.61336H67.4236L60.6198 1.94949V7.44529C60.6198 7.89908 60.6364 8.23521 60.6697 8.47051C60.703 8.68899 60.7529 8.85706 60.8194 8.94109C60.9691 9.15958 61.2187 9.26042 61.6013 9.27723V9.37807H59.3888V9.27723C59.6383 9.26042 59.838 9.21 59.971 9.10916C60.1041 9.00832 60.2039 8.84025 60.2705 8.58815C60.3204 8.33605 60.3536 7.9495 60.3536 7.44529V1.63017L60.0542 1.29403C59.788 0.991512 59.5884 0.806638 59.4221 0.722604C59.2724 0.63857 59.0727 0.58815 58.8398 0.53773V0.43689H60.5034L67.1907 8.01672V2.25202C67.1907 1.81504 67.1741 1.49571 67.1408 1.27723C67.1075 1.05874 67.0244 0.890671 66.8746 0.756217C66.7249 0.621764 66.492 0.554537 66.1926 0.53773V0.43689H68.4384Z" fill="#2D2D2D"/>
<path d="M77.1555 0.43689V0.53773C76.9226 0.571343 76.7396 0.63857 76.5899 0.773024C76.4402 0.890671 76.3071 1.05874 76.2073 1.26042C76.1075 1.4621 75.9911 1.73101 75.858 2.05034C75.8413 2.06714 75.8247 2.11756 75.7914 2.2016L73.2296 9.61336H73.1464L70.1521 1.59655C70.1521 1.57975 70.1354 1.56294 70.1354 1.52933C70.019 1.19319 69.8693 0.941091 69.6697 0.773024C69.4867 0.621764 69.2371 0.53773 68.9543 0.53773V0.43689H71.8655V0.53773C71.616 0.554537 71.4164 0.604957 71.2833 0.688991C71.1336 0.756217 71.067 0.941091 71.067 1.21C71.067 1.27723 71.1003 1.42849 71.1668 1.66378C71.1668 1.68059 71.1835 1.69739 71.1835 1.73101C71.1835 1.74781 71.2001 1.76462 71.2001 1.78143L73.529 8.06714H73.5457L75.5419 2.2184C75.675 1.81504 75.7582 1.51252 75.7582 1.31084C75.7582 0.991512 75.6916 0.789831 75.5585 0.705797C75.4255 0.621764 75.2258 0.571343 74.9597 0.554537V0.43689H77.1555Z" fill="#2D2D2D"/>
<path d="M77.7378 0.53773V0.43689H83.0112V1.84865H82.928C82.928 1.09235 82.4289 0.722604 81.4308 0.722604H79.5843V4.78983H81.2146C81.5306 4.78983 81.8301 4.73941 82.0796 4.63857C82.3291 4.53773 82.4788 4.28563 82.5121 3.91588H82.5953V5.9495H82.5121C82.4788 5.7142 82.4123 5.54613 82.3125 5.41168C82.2127 5.29403 82.1129 5.21 82.0131 5.15958C81.9132 5.12597 81.8301 5.09235 81.7469 5.09235C81.5972 5.07555 81.4475 5.05874 81.2977 5.05874H79.6009V8.23521C79.6009 8.4705 79.6509 8.68899 79.734 8.85706C79.8172 9.02513 80.0335 9.10916 80.3662 9.10916H81.6804C81.9964 9.10916 82.2626 9.05874 82.4622 8.97471C82.6618 8.87387 82.8282 8.75622 82.9446 8.58815C83.0611 8.42008 83.1609 8.2184 83.2441 7.98311H83.3272L83.0278 9.37807H77.7544V9.27723H77.8709C78.0539 9.27723 78.2369 9.19319 78.4198 9.04193C78.6028 8.89067 78.686 8.63857 78.686 8.28563V1.56294C78.686 1.29403 78.6195 1.04193 78.503 0.840251C78.3866 0.63857 78.1703 0.53773 77.8542 0.53773H77.7378Z" fill="#2D2D2D"/>
<path d="M88.5674 2.16792H88.4676C88.4177 1.73094 88.218 1.3612 87.902 1.02506C87.5859 0.705735 87.17 0.537667 86.6377 0.537667C86.305 0.537667 85.9889 0.621701 85.7227 0.772961C85.4566 0.941029 85.257 1.15952 85.1072 1.42842C84.9575 1.71414 84.891 2.03347 84.891 2.38641C84.891 2.67212 84.9409 2.90742 85.0241 3.1259C85.1072 3.34439 85.2403 3.52926 85.4067 3.69733C85.573 3.8654 85.7727 4.01666 86.0055 4.16792C86.2384 4.31918 86.5379 4.48725 86.9371 4.70573C87.5859 5.05868 88.085 5.42842 88.4509 5.78136C88.8169 6.13431 88.9999 6.63851 88.9999 7.26036C88.9999 7.64691 88.9001 7.99985 88.7005 8.3696C88.5008 8.72254 88.218 9.00826 87.8188 9.24355C87.4195 9.47884 86.9371 9.57968 86.3549 9.57968C85.9889 9.57968 85.6728 9.54607 85.39 9.46204C85.1072 9.378 84.8245 9.27716 84.5417 9.1259C84.4252 9.09229 84.342 9.05868 84.2921 9.05868C84.2089 9.05868 84.159 9.09229 84.1258 9.14271C84.0925 9.20994 84.0592 9.32758 84.026 9.52926H83.9261V7.32758H84.026C84.1757 7.98304 84.4585 8.48725 84.8744 8.82338C85.2902 9.15952 85.7893 9.32758 86.3882 9.32758C86.8373 9.32758 87.2033 9.24355 87.4694 9.07548C87.7356 8.90741 87.9186 8.70573 88.035 8.45363C88.1349 8.21834 88.1848 7.96624 88.1848 7.73094C88.1848 7.22674 88.035 6.82338 87.7356 6.50405C87.4362 6.18473 86.9704 5.8654 86.3549 5.52926C85.9224 5.29397 85.6229 5.1091 85.4067 4.97464C85.2071 4.84019 84.9908 4.67212 84.7912 4.47044C84.5749 4.26876 84.4086 4.01666 84.2921 3.73094C84.1757 3.44523 84.1091 3.1259 84.1091 2.75615C84.1091 2.33599 84.2256 1.93263 84.4418 1.54607C84.6581 1.15952 84.9742 0.856995 85.3734 0.621701C85.7727 0.386407 86.2384 0.26876 86.7541 0.26876C87.1367 0.26876 87.536 0.335987 87.9519 0.47044C88.0184 0.504054 88.1016 0.520861 88.218 0.520861C88.3511 0.520861 88.4343 0.436827 88.4842 0.251953H88.584V2.16792H88.5674Z" fill="#2D2D2D"/>
<path d="M97.3505 2.18484H97.2507C97.2008 1.5966 97.0344 1.22685 96.7516 1.05878C96.4522 0.890717 96.1029 0.806684 95.6704 0.806684H93.907V8.31929C93.907 8.95794 94.2231 9.27727 94.8719 9.31089V9.41173H92.0605V9.31089C92.3267 9.31089 92.543 9.22685 92.7259 9.07559C92.9089 8.92433 92.9921 8.67223 92.9921 8.31929V0.789877H91.2288C90.7963 0.789877 90.4469 0.873911 90.1475 1.04198C89.8647 1.21005 89.6817 1.5966 89.6318 2.16803H89.532V-3.89796e-05H89.6318C89.6983 0.100801 89.7482 0.168028 89.7981 0.218448C89.848 0.268869 89.9146 0.302482 89.9811 0.336095C90.0643 0.369709 90.1475 0.386516 90.2473 0.403322C90.3471 0.420129 90.4636 0.420129 90.6133 0.420129H96.3524C96.735 0.420129 97.0344 0.268869 97.2341 -0.0168457H97.3339V2.18484H97.3505Z" fill="#2D2D2D"/>
<path d="M76.7561 19.563H77.0722V18.0336L78.1202 16.2353H77.7709L76.9225 17.7311L76.0741 16.2353H75.7247L76.7728 18.0336V19.563H76.7561ZM71.4994 19.563H71.8155V16.9244L74.3108 19.6975V16.2521H73.9947V18.8907L71.4994 16.1176V19.563ZM68.0393 18.2185L68.6215 16.8571L69.2037 18.2185H68.0393ZM67.141 19.563H67.4737L67.9228 18.4874H69.3035L69.7527 19.563H70.0854L68.6049 16.1344L67.141 19.563ZM64.3629 16.5042H64.9451C65.0616 16.5042 65.6105 16.4874 65.6105 17.1092C65.6105 17.6807 65.178 17.7311 64.9451 17.7311H64.3629V16.5042ZM64.0302 19.563H64.3462V18H64.9451C65.2945 18 65.9266 17.916 65.9266 17.1092C65.9266 16.3193 65.2945 16.2353 64.9451 16.2353H64.0302V19.563ZM58.84 19.563H59.1394L59.4555 17.1092L60.6699 19.6975L61.8842 17.1092L62.2003 19.563H62.4997L62.0506 16.1008L60.6699 19.0588L59.2891 16.1008L58.84 19.563ZM55.6627 19.3949C54.8642 19.3949 54.232 18.7731 54.232 17.8991C54.232 17.0252 54.8642 16.4034 55.6627 16.4034C56.4612 16.4034 57.1099 17.0252 57.1099 17.8991C57.1099 18.7731 56.4778 19.3949 55.6627 19.3949ZM55.6627 19.6639C56.6441 19.6639 57.4426 18.958 57.4426 17.8991C57.4426 16.8571 56.6441 16.1344 55.6627 16.1344C54.6812 16.1344 53.8827 16.8403 53.8827 17.8991C53.8993 18.958 54.6978 19.6639 55.6627 19.6639ZM52.5519 18.9076C52.2358 19.2101 51.8033 19.3949 51.3541 19.3949C50.5556 19.3949 49.99 18.7059 49.99 17.8991C49.99 17.042 50.6222 16.4034 51.3541 16.4034C51.6868 16.4034 52.1194 16.4874 52.5519 16.9076V16.5378C52.1027 16.2017 51.6868 16.1344 51.3541 16.1344C50.4226 16.1344 49.6573 16.8571 49.6573 17.8991C49.6573 18.8907 50.356 19.6639 51.3541 19.6639C51.7201 19.6639 52.1693 19.563 52.5519 19.2773V18.9076ZM45.9311 19.563H47.3118V19.2941H46.2471V16.2521H45.9311V19.563ZM42.4709 18.2185L43.0532 16.8571L43.6354 18.2185H42.4709ZM41.5726 19.563H41.9053L42.3545 18.4874H43.7352L44.1844 19.563H44.5171L43.0365 16.1344L41.5726 19.563ZM37.3473 19.563H37.6633V16.9244L40.1586 19.6975V16.2521H39.8426V18.8907L37.3473 16.1176V19.563ZM33.9537 19.3949C33.1552 19.3949 32.5231 18.7731 32.5231 17.8991C32.5231 17.0252 33.1552 16.4034 33.9537 16.4034C34.7522 16.4034 35.401 17.0252 35.401 17.8991C35.3843 18.7731 34.7522 19.3949 33.9537 19.3949ZM33.9537 19.6639C34.9352 19.6639 35.7337 18.958 35.7337 17.8991C35.7337 16.8571 34.9352 16.1344 33.9537 16.1344C32.9722 16.1344 32.1737 16.8403 32.1737 17.8991C32.1737 18.958 32.9722 19.6639 33.9537 19.6639ZM30.2274 19.563H30.5435V16.2521H30.2274V19.563ZM27.6323 19.563H27.9484V16.5042H28.83V16.2353H26.7506V16.5042H27.6323V19.563ZM23.6565 18.2185L24.2387 16.8571L24.821 18.2185H23.6565ZM22.7582 19.563H23.0909L23.54 18.4874H24.9208L25.3699 19.563H25.7026L24.2221 16.1344L22.7582 19.563ZM18.5328 19.563H18.8489V16.9244L21.3442 19.6975V16.2521H21.0281V18.8907L18.5328 16.1176V19.563Z" fill="#2D2D2D"/>
</g>
<defs>
<clipPath id="clip0">
<rect width="97" height="20" fill="white" transform="translate(0.500366 -0.00012207)"/>
</clipPath>
</defs>
</svg>
