<svg width="16" height="16" viewBox="0 0 16 16" fill="none" xmlns="http://www.w3.org/2000/svg">
<path d="M3.90476 0.587308C4.50794 1.4127 5.21693 2.47091 6.03175 3.76191C6.2328 4.10054 6.20106 4.51852 5.93651 5.01588C5.85185 5.18519 5.59788 5.65609 5.1746 6.42858C5.25926 6.55556 5.35714 6.68784 5.46825 6.8254C5.57937 6.96297 5.69841 7.10847 5.8254 7.26191C5.95238 7.41535 6.08995 7.57143 6.2381 7.73016C6.38624 7.88889 6.54233 8.05556 6.70635 8.23016C6.87037 8.40477 7.04233 8.58202 7.22222 8.76191C8.15344 9.69313 8.92593 10.381 9.53968 10.8254C10.2275 10.4233 10.6984 10.1587 10.9524 10.0318C11.2169 9.8836 11.4709 9.80953 11.7143 9.80953C11.9048 9.80953 12.0688 9.85186 12.2064 9.93651C13.1481 10.5079 14.2169 11.2169 15.4127 12.0635C15.6243 12.2328 15.7513 12.455 15.7937 12.7302C15.8254 13.0159 15.7355 13.3228 15.5238 13.6508C15.4392 13.7778 15.2751 13.9894 15.0317 14.2857C14.8095 14.5609 14.4735 14.9101 14.0238 15.3333C13.5741 15.7566 13.2064 15.9683 12.9206 15.9683H12.8889C11.7989 15.9259 10.5873 15.4974 9.25397 14.6825C7.92064 13.8677 6.46032 12.672 4.87302 11.0952C1.70899 7.92064 0.0846561 5.24868 0 3.07937C0 2.79366 0.21164 2.418 0.634921 1.95239C1.04762 1.50794 1.39153 1.17461 1.66667 0.952388C1.9418 0.740747 2.16402 0.576726 2.33333 0.460324C2.55556 0.301594 2.81482 0.222229 3.11111 0.222229C3.44974 0.222229 3.71429 0.343922 3.90476 0.587308ZM2.88889 1.2381C2.47619 1.5344 2.07407 1.87831 1.68254 2.26985C1.30159 2.6508 1.07937 2.93122 1.01587 3.11112C1.10053 5.01588 2.62169 7.44445 5.57937 10.3968C8.53704 13.3492 10.9735 14.8783 12.8889 14.9841C13.0476 14.9206 13.3175 14.6931 13.6984 14.3016C14.0794 13.9101 14.4233 13.5027 14.7302 13.0794C14.7619 13.037 14.7831 12.9974 14.7937 12.9603C14.8042 12.9233 14.8042 12.8889 14.7937 12.8571C13.5767 12.0106 12.5503 11.3228 11.7143 10.7937C11.6296 10.7937 11.5238 10.8254 11.3968 10.8889C11.3545 10.9101 11.1852 11.0053 10.8889 11.1746C10.5926 11.3439 10.3016 11.5027 10.0159 11.6508L9.49206 11.9683L8.96825 11.6191C8.30159 11.164 7.48148 10.4392 6.50794 9.44445C5.55556 8.48149 4.84127 7.66138 4.36508 6.98413L3.98413 6.49207L4.30159 5.93651C4.69312 5.22752 4.94709 4.7672 5.06349 4.55556C5.12698 4.42858 5.15873 4.32276 5.15873 4.2381C4.79894 3.66667 4.44974 3.12434 4.11111 2.61112C3.77249 2.09789 3.44974 1.61905 3.14286 1.17461H3.11111C3.02646 1.17461 2.95238 1.19577 2.88889 1.2381Z" fill="#60B6E3"/>
</svg>
